<?xml version="1.0" standalone="no"?>
<!DOCTYPE svg PUBLIC "-//W3C//DTD SVG 1.1//EN"
  "http://www.w3.org/Graphics/SVG/1.1/DTD/svg11.dtd">
<svg version="1.1" xmlns="http://www.w3.org/2000/svg" width="1792" height="1063" viewBox="-992 -32 1792 1063"><defs><style type="text/css">@import url(&#x27;https://fonts.googleapis.com/css?family=Open+Sans:400,700&#x27;);</style></defs><g><rect x="-992" y="-32" width="1792" height="1063" fill="#fff"></rect><filter id="dropshadow" height="130%"><feGaussianBlur in="SourceAlpha" stdDeviation="3"></feGaussianBlur><feOffset dx="3" dy="6" result="offsetblur"></feOffset><feComponentTransfer><feFuncA type="linear" slope="0.4"></feFuncA></feComponentTransfer><feMerge><feMergeNode></feMergeNode><feMergeNode in="SourceGraphic"></feMergeNode></feMerge></filter><g><g style="pointer-events:none;"><line x1="32" y1="19" x2="-928" y2="574" stroke="#eee" stroke-width="1"></line><line x1="96" y1="56" x2="-864" y2="611" stroke="#eee" stroke-width="1"></line><line x1="160" y1="93" x2="-800" y2="648" stroke="#eee" stroke-width="1"></line><line x1="224" y1="130" x2="-736" y2="685" stroke="#eee" stroke-width="1"></line><line x1="288" y1="167" x2="-672" y2="722" stroke="#eee" stroke-width="1"></line><line x1="352" y1="204" x2="-608" y2="759" stroke="#eee" stroke-width="1"></line><line x1="416" y1="241" x2="-544" y2="796" stroke="#eee" stroke-width="1"></line><line x1="480" y1="278" x2="-480" y2="833" stroke="#eee" stroke-width="1"></line><line x1="544" y1="315" x2="-416" y2="870" stroke="#eee" stroke-width="1"></line><line x1="608" y1="352" x2="-352" y2="907" stroke="#eee" stroke-width="1"></line><line x1="672" y1="389" x2="-288" y2="944" stroke="#eee" stroke-width="1"></line><line x1="736" y1="426" x2="-224" y2="981" stroke="#eee" stroke-width="1"></line><line x1="-32" y1="19" x2="736" y2="463" stroke="#eee" stroke-width="1"></line><line x1="-96" y1="56" x2="672" y2="500" stroke="#eee" stroke-width="1"></line><line x1="-160" y1="93" x2="608" y2="537" stroke="#eee" stroke-width="1"></line><line x1="-224" y1="130" x2="544" y2="574" stroke="#eee" stroke-width="1"></line><line x1="-288" y1="167" x2="480" y2="611" stroke="#eee" stroke-width="1"></line><line x1="-352" y1="204" x2="416" y2="648" stroke="#eee" stroke-width="1"></line><line x1="-416" y1="241" x2="352" y2="685" stroke="#eee" stroke-width="1"></line><line x1="-480" y1="278" x2="288" y2="722" stroke="#eee" stroke-width="1"></line><line x1="-544" y1="315" x2="224" y2="759" stroke="#eee" stroke-width="1"></line><line x1="-608" y1="352" x2="160" y2="796" stroke="#eee" stroke-width="1"></line><line x1="-672" y1="389" x2="96" y2="833" stroke="#eee" stroke-width="1"></line><line x1="-736" y1="426" x2="32" y2="870" stroke="#eee" stroke-width="1"></line><line x1="-800" y1="463" x2="-32" y2="907" stroke="#eee" stroke-width="1"></line><line x1="-864" y1="500" x2="-96" y2="944" stroke="#eee" stroke-width="1"></line><line x1="-928" y1="537" x2="-160" y2="981" stroke="#eee" stroke-width="1"></line></g><g><g><g><polygon points="-96 130, 528 490, 529 527, 33 832, -32 833, -672 463, -672 426, -160 130" fill="#ffffff" stroke-width="2" stroke="#818181"></polygon><polygon points="-128 148, 496 509, 0 814, -640 444" fill="#e6e7e8"></polygon></g></g></g><g style="pointer-events:none;"><line x1="0" y1="0" x2="-960" y2="555" stroke="#54626f" stroke-width="1"></line><line x1="64" y1="37" x2="-896" y2="592" stroke="#54626f" stroke-width="1"></line><line x1="128" y1="74" x2="-832" y2="629" stroke="#54626f" stroke-width="1"></line><line x1="192" y1="111" x2="-768" y2="666" stroke="#54626f" stroke-width="1"></line><line x1="256" y1="148" x2="-704" y2="703" stroke="#54626f" stroke-width="1"></line><line x1="320" y1="185" x2="-640" y2="740" stroke="#54626f" stroke-width="1"></line><line x1="384" y1="222" x2="-576" y2="777" stroke="#54626f" stroke-width="1"></line><line x1="448" y1="259" x2="-512" y2="814" stroke="#54626f" stroke-width="1"></line><line x1="512" y1="296" x2="-448" y2="851" stroke="#54626f" stroke-width="1"></line><line x1="576" y1="333" x2="-384" y2="888" stroke="#54626f" stroke-width="1"></line><line x1="640" y1="370" x2="-320" y2="925" stroke="#54626f" stroke-width="1"></line><line x1="704" y1="407" x2="-256" y2="962" stroke="#54626f" stroke-width="1"></line><line x1="768" y1="444" x2="-192" y2="999" stroke="#54626f" stroke-width="1"></line><line x1="0" y1="0" x2="768" y2="444" stroke="#54626f" stroke-width="1"></line><line x1="-64" y1="37" x2="704" y2="481" stroke="#54626f" stroke-width="1"></line><line x1="-128" y1="74" x2="640" y2="518" stroke="#54626f" stroke-width="1"></line><line x1="-192" y1="111" x2="576" y2="555" stroke="#54626f" stroke-width="1"></line><line x1="-256" y1="148" x2="512" y2="592" stroke="#54626f" stroke-width="1"></line><line x1="-320" y1="185" x2="448" y2="629" stroke="#54626f" stroke-width="1"></line><line x1="-384" y1="222" x2="384" y2="666" stroke="#54626f" stroke-width="1"></line><line x1="-448" y1="259" x2="320" y2="703" stroke="#54626f" stroke-width="1"></line><line x1="-512" y1="296" x2="256" y2="740" stroke="#54626f" stroke-width="1"></line><line x1="-576" y1="333" x2="192" y2="777" stroke="#54626f" stroke-width="1"></line><line x1="-640" y1="370" x2="128" y2="814" stroke="#54626f" stroke-width="1"></line><line x1="-704" y1="407" x2="64" y2="851" stroke="#54626f" stroke-width="1"></line><line x1="-768" y1="444" x2="0" y2="888" stroke="#54626f" stroke-width="1"></line><line x1="-832" y1="481" x2="-64" y2="925" stroke="#54626f" stroke-width="1"></line><line x1="-896" y1="518" x2="-128" y2="962" stroke="#54626f" stroke-width="1"></line><line x1="-960" y1="555" x2="-192" y2="999" stroke="#54626f" stroke-width="1"></line><polygon points="-960 555, -960 565, -192 1009, -192 999" stroke-linejoin="round" stroke="#54626f" stroke-width="1" fill="#f9f9f9"></polygon><polygon points="-192 1009, 768 454, 768 444, -192 999" stroke-linejoin="round" stroke="#54626f" stroke-width="1" fill="#e2e2e2"></polygon></g><g><g><g transform="translate(0 0)"><svg x="-160" y="463" overflow="visible" style="user-select:none;"><circle cx="0" cy="0" r="5" fill="#000"></circle><polygon points="0 0, 165 95, 101 132, -64 37" fill="#f5b720"></polygon><polygon points="0 0, 165 95, 101 132, -64 37" fill="none" stroke-width="20" stroke="#f5b720" opacity="1"></polygon><polygon points="0 0, -19 -11, 13 -30, -83 -11, -115 44, -83 26, -64 37" fill="#f5b720"></polygon><polygon points="165 95, 184 107, 216 88, 184 144, 88 162, 120 144, 101 132" fill="#f5b720"></polygon></svg></g></g></g><g><g><g><line x1="-16" y1="509" x2="13" y2="424" stroke="#000000" stroke-width="2" stroke-linecap="round"></line><polygon points="16 416, 0 429, 13 426, 22 432, 16 416" stroke-linejoin="round" fill="#000000" stroke="#000000" stroke-width="1"></polygon></g></g><g><g><line x1="-348" y1="700" x2="-266" y2="653" stroke="#000000" stroke-width="2" stroke-linecap="round"></line><polygon points="-256 648, -282 653, -268 655, -265 662, -256 648" stroke-linejoin="round" fill="#000000" stroke="#000000" stroke-width="1"></polygon></g></g><g><g><line x1="112" y1="564" x2="198" y2="514" stroke="#000000" stroke-width="2" stroke-linecap="round"></line><polygon points="208 509, 182 514, 196 516, 199 524, 208 509" stroke-linejoin="round" fill="#000000" stroke="#000000" stroke-width="1"></polygon></g></g><g><g><line x1="-208" y1="472" x2="-298" y2="420" stroke="#000000" stroke-width="2" stroke-linecap="round"></line><polygon points="-307 414, -298 429, -295 422, -282 420, -307 414" stroke-linejoin="round" fill="#000000" stroke="#000000" stroke-width="1"></polygon></g></g><g><g><line x1="-112" y1="527" x2="112" y2="564" stroke="#000000" stroke-width="2" stroke-linecap="round"></line></g></g><g><g><line x1="272" y1="509" x2="336" y2="546" stroke="#000000" stroke-width="2" stroke-linecap="round"></line></g></g><g><g><line x1="-160" y1="833" x2="-335" y2="731" stroke="#000000" stroke-width="2" stroke-linecap="round"></line><polygon points="-345 726, -336 740, -332 733, -319 731, -345 726" stroke-linejoin="round" fill="#000000" stroke="#000000" stroke-width="1"></polygon></g></g><g><g><line x1="-175" y1="601" x2="-122" y2="570" stroke="#000000" stroke-width="2" stroke-linecap="round"></line><polygon points="-112 564, -138 570, -124 571, -121 579, -112 564" stroke-linejoin="round" fill="#000000" stroke="#000000" stroke-width="1"></polygon></g></g><g><g><line x1="336" y1="546" x2="-160" y2="833" stroke="#000000" stroke-width="2" stroke-linecap="round"></line></g></g></g><g><g><g transform="translate(0 0)"><svg x="-16" y="297" height="138.453" width="128" viewBox="0 0 33.866669 36.632408"><g style="line-height:0%;" fill="#4286c5" font-family="sans-serif" font-size="3.175" stroke-width=".265"><path d="M.136 12.287v14.42l16.65 9.612V21.9l-4.163-7.21-8.324-4.806z" fill="#d2d2d4"></path><path d="M20.983 14.69l8.324-4.806 4.162 2.403v14.42l-16.65 9.612V21.9z" fill="#b8b8bb"></path><path d="M4.298 9.884l8.324 4.806h8.325l8.324-4.806V5.077L20.947.271h-8.325L4.298 5.077z" fill="#ececed"></path><path d="M12.854 14.69h8.324l-4.163 7.21z" fill="#ececed"></path><path d="M4.36 4.894v4.807L.195 12.104zM29.271 9.701V4.894l4.162 7.21z" fill="#d2d2d4"></path><path d="M110.027 160.436h8.12l-4.06 7.032zM97.766 158.093v14.062l16.238 9.376v-14.063l-4.059-7.032-8.118-4.687zM118.164 160.43l8.118-4.686 4.059 2.343v14.063l-16.237 9.375v-14.062z" fill="none" stroke="#83838a" transform="matrix(1.02534 0 0 1.02534 -100.108 -149.812)"></path><path d="M101.826 155.75l8.118 4.686h8.12l8.118-4.687v-4.688l-8.119-4.687h-8.119l-8.118 4.687z" fill="none" stroke="#83838a" transform="matrix(1.02534 0 0 1.02534 -100.108 -149.812)"></path><path d="M97.923 172.155v-14.062l4.06-7.032 8.119-4.687h8.12l8.118 4.687 4.06 7.032v14.062l-16.239 9.376z" fill="none" stroke="#000000" stroke-width=".516" transform="matrix(1.02534 0 0 1.02534 -100.108 -149.812)"></path><path style="line-height:1.25;-inkscape-font-specification:&#x27;Open Sans&#x27;;" d="M10.59 9.757l5.512-6.001-.063-.036q-2.295 1.477-3.106 1.945L8.218 8.387 6.297 7.28l10.138-5.853 2.926 1.689-5.353 5.861.041.024 10.297-3.007 2.927 1.69-10.138 5.853-2.004-1.157 4.798-2.77q.34-.197.79-.449.458-.248 2.455-1.305l-.062-.036-10.554 3.074z" font-family="Open Sans" font-size="14.883"></path></g></svg></g></g><g><g transform="translate(0 0)"><svg x="-371" y="305" height="115.695" width="100.625" viewBox="0 0 26.623829 30.611019"><path d="M13.312.306v15l12.99-7.5z" fill="#4286c5" fill-rule="evenodd"></path><path d="M.322 7.806l12.99 7.5v-15z" fill="#26527b" fill-rule="evenodd"></path><path d="M13.312.306v15" fill="none" stroke="#318bce" stroke-width=".265"></path><path d="M13.312 15.306l12.99-7.5-6.495 18.75-6.495 3.75z" fill="#26527b" fill-rule="evenodd"></path><path d="M.322 7.806l12.99 7.5v15l-6.495-3.75z" fill="#326ca2" fill-rule="evenodd"></path><path d="M.322 7.806l12.99 7.5 12.99-7.5-12.99 7.5v15" fill="none" stroke="#5aa2d8" stroke-width=".265"></path><path d="M13.312.306l-12.99 7.5 6.495 18.75 6.495 3.75 6.495-3.75 6.495-18.75z" fill="none" stroke="#000000" stroke-width=".529"></path></svg></g></g><g><g transform="translate(0 0)"><svg x="192" y="404" height="113.438" width="96" viewBox="0 0 25.400052 30.013873"><g transform="translate(412.599 -86.957)"><path d="M-412.333 102.348v4.786l8.29 4.785h8.289l8.29-4.785v-4.786l-8.29-4.786h-8.29z" fill="#3c3c3c" fill-rule="evenodd"></path><path d="M-395.754 111.92l8.29-4.786v4.785l-8.29 4.786z" fill="#090909" fill-rule="evenodd"></path><path d="M-404.044 111.92h8.29v4.785h-8.29z" fill="#232323" fill-rule="evenodd"></path><path d="M-412.333 107.134v4.785l8.29 4.786v-4.786z" fill="#232323" fill-rule="evenodd"></path><path d="M-412.333 107.134l8.29 4.785h8.289l8.29-4.785M-404.044 111.92v4.785M-395.754 111.92v4.785" fill="none" stroke="#000" stroke-width=".26588"></path><path d="M-412.333 102.348v9.571l8.29 4.786h8.289l8.29-4.786v-9.571l-8.29-4.786h-8.29z" fill="none" stroke="#000000" stroke-width=".53176"></path><path d="M-412.333 97.178v4.786l8.29 4.786h8.289l8.29-4.786v-4.786l-8.29-4.786h-8.29z" fill="#3c3c3c" fill-rule="evenodd"></path><path d="M-395.754 106.75l8.29-4.786v4.786l-8.29 4.786z" fill="#090909" fill-rule="evenodd"></path><path d="M-404.044 106.75h8.29v4.786h-8.29z" fill="#232323" fill-rule="evenodd"></path><path d="M-412.333 101.964v4.786l8.29 4.786v-4.786z" fill="#232323" fill-rule="evenodd"></path><path d="M-412.333 101.964l8.29 4.786h8.289l8.29-4.786M-404.044 106.75v4.786M-395.754 106.75v4.786" fill="none" stroke="#000" stroke-width=".266"></path><path d="M-412.333 97.178v9.572l8.29 4.786h8.289l8.29-4.786v-9.572l-8.29-4.786h-8.29z" fill="none" stroke="#000000" stroke-width=".532"></path><path d="M-412.333 92.01v4.785l8.29 4.786h8.289l8.29-4.786v-4.786l-8.29-4.786h-8.29z" fill="#3c3c3c" fill-rule="evenodd"></path><path d="M-395.754 101.58l8.29-4.785v4.786l-8.29 4.786z" fill="#090909" fill-rule="evenodd"></path><path d="M-404.044 101.58h8.29v4.787h-8.29z" fill="#232323" fill-rule="evenodd"></path><path d="M-412.333 96.795v4.786l8.29 4.786v-4.786z" fill="#232323" fill-rule="evenodd"></path><path d="M-412.333 96.795l8.29 4.786h8.289l8.29-4.786M-404.044 101.58v4.787M-395.754 101.58v4.787" fill="none" stroke="#000" stroke-width=".266"></path><path d="M-412.333 92.01v9.57l8.29 4.787h8.289l8.29-4.786v-9.572l-8.29-4.786h-8.29z" fill="none" stroke="#000000" stroke-width=".532"></path><circle cx="-136.478" cy="325.284" fill="#f4b934" r="5.801" transform="scale(1.22475 .7071) rotate(45)"></circle><g style="line-height:0%;" font-family="sans-serif" font-size="3.191" stroke-width=".266"><path style="line-height:1.25;-inkscape-font-specification:&#x27;Droid Serif&#x27;;" d="M-399.242 93.57l.48-.601q.222-.275.177-.448-.04-.17-.467-.416l-.507-.293 1.065-.614.937.541q.825.476.92.934.1.46-.417 1.114l-3.452 4.39-1.622-.937 1.654-2.121-3.729.923-1.622-.936z" fill="#fff" font-family="Droid Serif" font-size="9.971"></path></g></g></svg></g></g><g><g transform="translate(0 0)"><svg x="-208" y="435" height="111" width="128" fill-rule="evenodd"><path d="M64 74v37l64-37V37L64 74z" fill="#b8b8bb"></path><path d="M0 37v37l64 37V74L0 37z" fill="#d2d2d4"></path><path d="M0 37L64 0l64 37-64 37L0 37z" fill="#ececed"></path><path d="M64 73.407l62.111-35.86.514.889-62.487 36.078h-.276L.743 38.072l.514-.89L64 73.407z" fill="#83838a"></path><path d="M63.486 74h1.027v36h-1.027z" fill="#83838a"></path><path d="M128 37v37l-64 37L0 74V37L64 0l64 37zM2.054 38.185v34.63L64 108.627l61.946-35.812v-34.63L64 2.373 2.054 38.185z" fill="#000000"></path></svg><svg x="-153" y="452" width="60" height="35" style="user-select:none;overflow:visible;"><rect transform="matrix(0.707 0.409 -0.707 0.409 0 0)" width="60" height="35" rx="5" ry="5" fill="#4286c5"></rect><text transform="matrix(0.707 0.409 -0.707 0.409 0 0)" font-family="Open Sans" font-size="20pt" fill="#ffffff" text-anchor="middle" x="50%" y="75%"><tspan>T2</tspan></text></svg></g></g><g><g transform="translate(0 0)"><svg x="-144" y="472" height="111" width="128" fill-rule="evenodd"><path d="M64 74v37l64-37V37L64 74z" fill="#b8b8bb"></path><path d="M0 37v37l64 37V74L0 37z" fill="#d2d2d4"></path><path d="M0 37L64 0l64 37-64 37L0 37z" fill="#ececed"></path><path d="M64 73.407l62.111-35.86.514.889-62.487 36.078h-.276L.743 38.072l.514-.89L64 73.407z" fill="#83838a"></path><path d="M63.486 74h1.027v36h-1.027z" fill="#83838a"></path><path d="M128 37v37l-64 37L0 74V37L64 0l64 37zM2.054 38.185v34.63L64 108.627l61.946-35.812v-34.63L64 2.373 2.054 38.185z" fill="#000000"></path></svg><svg x="-89" y="489" width="60" height="35" style="user-select:none;overflow:visible;"><rect transform="matrix(0.707 0.409 -0.707 0.409 0 0)" width="60" height="35" rx="5" ry="5" fill="#4286c5"></rect><text transform="matrix(0.707 0.409 -0.707 0.409 0 0)" font-family="Open Sans" font-size="20pt" fill="#ffffff" text-anchor="middle" x="50%" y="75%"><tspan>T2</tspan></text></svg></g></g><g><g transform="translate(0 0)"><svg x="-272" y="564" height="94" width="97" fill-rule="evenodd"><path d="M0 18.6v18.6l32.333 18.6h32.334L97 37.2V18.6L64.667 0H32.333L0 18.6z" fill="#ececed"></path><path d="M64.667 55.8L97 37.2v37.2L64.667 93V55.8z" fill="#b8b8bb"></path><path d="M32.333 55.8h32.334V93H32.333V55.8zM0 37.2v37.2L32.333 93V55.8L0 37.2z" fill="#d2d2d4"></path><g fill="none" stroke="#83838a" stroke-width="1.04"><path d="M.955 37.877L32.333 55.8h32.334l31.378-17.923M32.333 55.8v36.211M64.667 55.8v36.574"></path></g><path d="M97 18.6v55.8L64.667 93H32.333L0 74.4V18.6L32.333 0h32.334L97 18.6zM32.865 1.989L1.989 19.751v53.498l30.876 17.762h31.27l30.876-17.762V19.751L64.135 1.989h-31.27z" fill="#000000"></path><path d="M69.912 15.583c11.818 6.798 11.818 17.836 0 24.635-11.817 6.798-31.007 6.798-42.824 0-11.818-6.799-11.818-17.837 0-24.635 11.817-6.799 31.007-6.799 42.824 0z" fill="#4286c5"></path><path d="M49.584 14.774c1.824 1.049 1.824 2.753 0 3.802-1.824 1.05-4.786 1.05-6.61 0-1.824-1.049-1.824-2.753 0-3.802 1.824-1.05 4.786-1.05 6.61 0zM60.451 21.025c1.825 1.049 1.825 2.753 0 3.803-1.824 1.049-4.786 1.049-6.61 0-1.824-1.05-1.824-2.754 0-3.803s4.786-1.049 6.61 0zM71.319 27.276c1.824 1.05 1.824 2.754 0 3.803-1.825 1.049-4.787 1.049-6.611 0-1.824-1.049-1.824-2.753 0-3.803 1.824-1.049 4.786-1.049 6.611 0zM38.497 33.654c1.824 1.05 1.824 2.754 0 3.803-1.825 1.05-4.787 1.05-6.611 0-1.824-1.049-1.824-2.753 0-3.803 1.824-1.049 4.786-1.049 6.611 0z" fill="#fff"></path><path d="M47.458 15.878c.453.26.393.717-.133 1.02-.526.303-1.32.337-1.773.076-.452-.26-.392-.717.133-1.019.526-.303 1.321-.337 1.773-.077z" fill="#fff"></path><path d="M48.111 15.621c1.012.582 1.012 1.526 0 2.108-1.011.582-2.653.582-3.664 0-1.012-.582-1.012-1.526 0-2.108 1.011-.582 2.653-.582 3.664 0zM58.978 21.872c1.012.582 1.012 1.527 0 2.108-1.011.582-2.653.582-3.664 0-1.012-.581-1.012-1.526 0-2.108 1.011-.581 2.653-.581 3.664 0zM69.846 28.124c1.011.581 1.011 1.526 0 2.108-1.012.582-2.654.582-3.665 0-1.011-.582-1.011-1.527 0-2.108 1.011-.582 2.653-.582 3.665 0z" fill="#4286c5"></path><path d="M37.024 34.502c1.011.582 1.011 1.526 0 2.108-1.012.582-2.654.582-3.665 0-1.011-.582-1.011-1.526 0-2.108 1.011-.582 2.653-.582 3.665 0z" fill="#fff"></path><g fill="#fff"><path d="M52.301 25.172L37.719 33.56l.482.834 14.584-8.388-.484-.834z"></path><path d="M46.993 26.089l6.654-1.146-4.324 5.168c.189-1.691-.757-3.313-2.33-4.022z" stroke="#fff" stroke-width=".36"></path></g><g fill="#fff"><path d="M43.488 19.937l-6.057 13.797.886.387 6.056-13.798-.885-.386z"></path><path d="M39.76 23.812l4.676-4.854-.405 6.716c-.855-1.474-2.582-2.221-4.271-1.862z" stroke="#fff" stroke-width=".36"></path></g><g fill="#fff"><path d="M61.953 30.061l-23.985 3.483.14.955 23.985-3.486-.14-.952z"></path><path d="M56.68 28.957l6.608 1.387-5.936 3.209c.804-1.503.526-3.358-.672-4.596z" stroke="#fff" stroke-width=".36"></path></g><path d="M37.96 33.977l13.12-7.547M37.873 33.927l5.792-13.134M38.037 34.022l22.478-3.281" fill="#fff" stroke="#fff" stroke-width="1.93"></path></svg></g></g><g><g transform="translate(0 0)"><svg x="-408" y="635" height="95.068" width="63" viewBox="0 0 16.668756 25.153389"><path d="M16.668 22.903q0 1.64-.864 2.091-.865.451-2.297-.376L3.161 18.645q-1.433-.827-2.297-2.276Q.001 14.921 0 13.28q0-.723.042-1.39.042-.666.166-1.394.124-.727.313-1.302.19-.575.51-1.039.319-.464.733-.683.414-.22 1.012-.147.598.073 1.32.49.107.06.497.58.391.52.882 1.165.491.646 1.279 1.394.788.75 1.58 1.207.793.458 1.58.618.788.161 1.28.083.49-.079.881-.147.39-.069.497-.007.722.416 1.32 1.035.598.619 1.013 1.315.414.697.734 1.531t.509 1.627q.19.793.313 1.664.124.872.166 1.586.042.713.042 1.438zM12.88 8.51q0 2.173-1.332 2.942-1.332.769-3.214-.318-1.882-1.086-3.214-3.393Q3.79 5.434 3.79 3.26q0-2.173 1.331-2.942 1.332-.77 3.214.317t3.214 3.394q1.332 2.306 1.332 4.48z" fill="#444"></path></svg></g></g></g><g></g><g></g><g><g><g transform="translate(0 0)"><svg x="-160" y="629" overflow="visible" style="user-select:none;"><text stroke="#ffffff" stroke-width="4" font-family="Open Sans" y="46.76" font-size="34pt" fill="#ff9800" font-weight="bold" transform="matrix(0.707 -0.409 0.707 0.409 0 0)"><tspan x="8" dy="0">Auto</tspan><tspan x="8" dy="1.1em">Scaling</tspan></text><text font-family="Open Sans" y="46.76" font-size="34pt" fill="#ff9800" font-weight="bold" transform="matrix(0.707 -0.409 0.707 0.409 0 0)"><tspan x="8" dy="0">Auto</tspan><tspan x="8" dy="1.1em">Scaling</tspan></text></svg></g></g><g><g transform="translate(0 0)"><svg x="-320" y="426" overflow="visible" style="user-select:none;"><text stroke="#ffffff" stroke-width="4" font-family="Open Sans" y="36.5" font-size="25pt" fill="#03a9f4" font-weight="bold" transform="matrix(0.707 0.409 -0.707 0.409 0 0)"><tspan x="8" dy="0">Static</tspan><tspan x="8" dy="1.1em">files</tspan></text><text font-family="Open Sans" y="36.5" font-size="25pt" fill="#03a9f4" font-weight="bold" transform="matrix(0.707 0.409 -0.707 0.409 0 0)"><tspan x="8" dy="0">Static</tspan><tspan x="8" dy="1.1em">files</tspan></text></svg></g></g><g><g transform="translate(0 0)"><svg x="-128" y="352" overflow="visible" style="user-select:none;"><text stroke="#ffffff" stroke-width="4" font-family="Open Sans" y="36.5" font-size="25pt" fill="#03a9f4" font-weight="bold" transform="matrix(0.707 0.409 -0.707 0.409 0 0)"><tspan x="8" dy="0">User</tspan><tspan x="8" dy="1.1em">Record</tspan></text><text font-family="Open Sans" y="36.5" font-size="25pt" fill="#03a9f4" font-weight="bold" transform="matrix(0.707 0.409 -0.707 0.409 0 0)"><tspan x="8" dy="0">User</tspan><tspan x="8" dy="1.1em">Record</tspan></text></svg></g></g><g><g transform="translate(0 0)"><svg x="16" y="749" overflow="visible" style="user-select:none;"><text stroke="#ffffff" stroke-width="4" font-family="Open Sans" y="46.76" font-size="34pt" fill="#ff9800" font-weight="bold" transform="matrix(0.707 -0.409 0.707 0.409 0 0)"><tspan x="8" dy="0">Notification</tspan></text><text font-family="Open Sans" y="46.76" font-size="34pt" fill="#ff9800" font-weight="bold" transform="matrix(0.707 -0.409 0.707 0.409 0 0)"><tspan x="8" dy="0">Notification</tspan></text></svg></g></g></g></g></g></svg>
